<?xml version="1.0" encoding="UTF-8"?>
<svg version="1.1" xmlns="http://www.w3.org/2000/svg" width="500" height="500">
<path d="M0 0 C10.42277731 -0.19557088 10.42277731 -0.19557088 13.4765625 2.12109375 C14.234375 4.203125 14.234375 4.203125 14.6015625 6.93359375 C14.74464844 7.990625 14.88773437 9.04765625 15.03515625 10.13671875 C15.18559327 11.46447383 15.33231254 12.79265226 15.4765625 14.12109375 C15.57211426 14.96994141 15.66766602 15.81878906 15.76611328 16.69335938 C16.07883278 19.52220705 16.37533722 22.3521999 16.6640625 25.18359375 C16.76025879 26.11212158 16.85645508 27.04064941 16.95556641 27.99731445 C17.0385498 28.87476318 17.1215332 29.75221191 17.20703125 30.65625 C17.28332764 31.44394775 17.35962402 32.23164551 17.43823242 33.04321289 C17.4765625 35.12109375 17.4765625 35.12109375 16.4765625 38.12109375 C11.94731636 40.88316858 7.27379412 42.13294377 2.1640625 43.30859375 C1.45572266 43.48583984 0.74738281 43.66308594 0.01757812 43.84570312 C-5.25996669 45.08494529 -10.10531954 45.27620275 -15.5234375 45.12109375 C-14.66853362 66.35815725 -13.40106046 87.18192976 -9.5234375 108.12109375 C-9.31251465 109.27915527 -9.1015918 110.4372168 -8.88427734 111.63037109 C-8.02816247 116.32415512 -7.1688718 121.017013 -6.27416992 125.70361328 C-0.99071879 153.38658423 -0.99071879 153.38658423 -3.8984375 158.57421875 C-7.70869362 162.27107439 -11.93959967 163.64117952 -16.8984375 165.37109375 C-18.37268188 165.89485596 -18.37268188 165.89485596 -19.87670898 166.42919922 C-28.90876828 169.49836714 -38.43640481 172.35615119 -47.5234375 168.12109375 C-47.5234375 167.46109375 -47.5234375 166.80109375 -47.5234375 166.12109375 C-48.1628125 165.85296875 -48.8021875 165.58484375 -49.4609375 165.30859375 C-51.5234375 164.12109375 -51.5234375 164.12109375 -52.5234375 161.12109375 C-50.5434375 161.45109375 -48.5634375 161.78109375 -46.5234375 162.12109375 C-46.78288873 159.20303051 -47.05579832 156.28718822 -47.3359375 153.37109375 C-47.40619141 152.56542969 -47.47644531 151.75976562 -47.54882812 150.9296875 C-47.99040696 146.4432465 -48.70025695 142.21054394 -49.87109375 137.85546875 C-52.09251171 129.37727192 -53.33305507 120.72636412 -54.68554688 112.07617188 C-55.14760805 109.12638891 -55.62007925 106.17840723 -56.09375 103.23046875 C-58.58482987 87.55110002 -58.58482987 87.55110002 -59.07421875 80.31640625 C-59.4159767 75.27683267 -60.51516737 70.78320271 -62.0859375 65.99609375 C-64.5234375 58.28741606 -64.5234375 58.28741606 -64.5234375 56.12109375 C-65.65136719 56.33765625 -66.77929688 56.55421875 -67.94140625 56.77734375 C-76.97110346 58.41143674 -85.77408032 59.42071234 -94.9609375 59.43359375 C-95.85385498 59.43875 -96.74677246 59.44390625 -97.66674805 59.44921875 C-101.91547457 59.40348522 -104.76294091 59.25365136 -108.5234375 57.12109375 C-108.5234375 56.13109375 -108.5234375 55.14109375 -108.5234375 54.12109375 C-106.8734375 54.12109375 -105.2234375 54.12109375 -103.5234375 54.12109375 C-104.00227111 50.12105381 -104.48156476 46.12106911 -104.9609375 42.12109375 C-105.09564453 40.99574219 -105.23035156 39.87039062 -105.36914062 38.7109375 C-105.50126953 37.60878906 -105.63339844 36.50664062 -105.76953125 35.37109375 C-105.89569824 34.29730469 -106.02186523 33.22351563 -106.15185547 32.1171875 C-106.38061239 30.27270328 -106.63030843 28.43050204 -106.91455078 26.59375 C-107.19300076 24.77951922 -107.37029561 22.95016873 -107.5234375 21.12109375 C-105.1684803 18.76613655 -103.8749877 18.54199964 -100.66796875 17.7890625 C-99.66443359 17.55034424 -98.66089844 17.31162598 -97.62695312 17.06567383 C-96.54091797 16.8158374 -95.45488281 16.56600098 -94.3359375 16.30859375 C-93.21767578 16.04651123 -92.09941406 15.78442871 -90.94726562 15.5144043 C-87.47504984 14.70576925 -84.00005349 13.9105825 -80.5234375 13.12109375 C-79.48106934 12.88422852 -78.43870117 12.64736328 -77.36474609 12.40332031 C-65.92395681 9.82224566 -54.47184015 7.43752325 -42.90087891 5.52001953 C-40.13076292 5.05520442 -37.36439983 4.57041411 -34.59765625 4.0859375 C-23.04669138 2.0821804 -11.72970305 0.40312727 0 0 Z " fill="#FAFAFA" transform="translate(304.5234375,180.87890625)"/>
<path d="M0 0 C0.66 0.33 1.32 0.66 2 1 C2.62852934 3.33247815 3.15535246 5.69291467 3.625 8.0625 C3.88539063 9.35285156 4.14578125 10.64320313 4.4140625 11.97265625 C4.60742188 12.97167969 4.80078125 13.97070312 5 15 C7.7294586 14.85856168 10.45848123 14.71200471 13.1875 14.5625 C13.95642578 14.52318359 14.72535156 14.48386719 15.51757812 14.44335938 C18.60506464 14.27109618 21.56032587 14.09005374 24.59375 13.46875 C27.85637698 12.83317331 30.99269521 12.90647379 34.3125 12.9375 C35.56675781 12.94652344 36.82101563 12.95554688 38.11328125 12.96484375 C39.06589844 12.97644531 40.01851562 12.98804688 41 13 C47.29138079 26.97292505 48.8364736 42.06220834 50.60522461 57.13476562 C51.37512232 63.5913986 52.31219075 69.72605332 54 76 C54.41653245 78.53519135 54.79270414 81.0773984 55.125 83.625 C55.37636719 85.50058594 55.37636719 85.50058594 55.6328125 87.4140625 C55.96355306 90.64406077 56.06985195 93.75687359 56 97 C54.55901552 94.32607363 53.64137343 91.94491505 53.0703125 88.96484375 C52.91667236 88.16876709 52.76303223 87.37269043 52.60473633 86.55249023 C52.44642334 85.68954346 52.28811035 84.82659668 52.125 83.9375 C51.95572998 83.03008057 51.78645996 82.12266113 51.61206055 81.18774414 C50.20277395 73.45971238 48.97828442 65.70562859 47.8125 57.9375 C47.64572754 56.8333374 47.47895508 55.7291748 47.30712891 54.59155273 C46.5360009 49.31372443 45.90724139 44.08418287 45.546875 38.76171875 C45.14612092 33.52608844 44.07019896 28.85084446 42.4375 23.875 C40 16.16632231 40 16.16632231 40 14 C38.87207031 14.2165625 37.74414062 14.433125 36.58203125 14.65625 C27.55233404 16.29034299 18.74935718 17.29961859 9.5625 17.3125 C8.66958252 17.31765625 7.77666504 17.3228125 6.85668945 17.328125 C2.60796293 17.28239147 -0.23950341 17.13255761 -4 15 C-4 14.01 -4 13.02 -4 12 C-2.35 12 -0.7 12 1 12 C0.67 8.04 0.34 4.08 0 0 Z " fill="#565656" transform="translate(200,223)"/>
<path d="M0 0 C1.04285156 -0.01417969 2.08570313 -0.02835938 3.16015625 -0.04296875 C6.034605 0.19555794 7.63986794 0.44446878 9.9375 2.1875 C10.6953125 4.26953125 10.6953125 4.26953125 11.0625 7 C11.20558594 8.05703125 11.34867187 9.1140625 11.49609375 10.203125 C11.64653077 11.53088008 11.79325004 12.85905851 11.9375 14.1875 C12.03305176 15.03634766 12.12860352 15.88519531 12.22705078 16.75976562 C12.53977028 19.5886133 12.83627472 22.41860615 13.125 25.25 C13.22119629 26.17852783 13.31739258 27.10705566 13.41650391 28.0637207 C13.4994873 28.94116943 13.5824707 29.81861816 13.66796875 30.72265625 C13.74426514 31.510354 13.82056152 32.29805176 13.89916992 33.10961914 C13.9375 35.1875 13.9375 35.1875 12.9375 38.1875 C8.40825386 40.94957483 3.73473162 42.19935002 -1.375 43.375 C-2.08333984 43.55224609 -2.79167969 43.72949219 -3.52148438 43.91210938 C-8.79902919 45.15135154 -13.64438204 45.342609 -19.0625 45.1875 C-18.79832161 50.23726808 -18.5316938 55.28689917 -18.26293945 60.33642578 C-18.17212099 62.04895658 -18.08193518 63.76152107 -17.99243164 65.47412109 C-17.49103707 75.05944081 -16.95251931 84.62847697 -16.0625 94.1875 C-18.80628455 90.07182317 -18.77593979 86.41755838 -19.1875 81.5625 C-19.27241699 80.60714355 -19.35733398 79.65178711 -19.44482422 78.66748047 C-20.36533887 67.18605124 -20.25021694 55.69599221 -20.0625 44.1875 C-19.22847656 44.07792969 -18.39445312 43.96835938 -17.53515625 43.85546875 C-11.59127002 43.01801399 -6.04193697 42.05091269 -0.41235352 39.95776367 C2.11186196 39.13034551 4.59894206 38.59340045 7.20703125 38.09375 C8.09624268 37.92166016 8.9854541 37.74957031 9.90161133 37.57226562 C10.57345459 37.44529297 11.24529785 37.31832031 11.9375 37.1875 C10.93250612 25.79487649 9.9036995 14.46177159 7.9375 3.1875 C-1.46176619 2.98751561 -10.71085239 3.06643087 -20.0625 4.125 C-20.83319824 4.21185059 -21.60389648 4.29870117 -22.39794922 4.38818359 C-26.35544971 4.83133689 -26.35544971 4.83133689 -30.0625 6.1875 C-33.14255912 6.50250605 -36.22349912 6.69833648 -39.3125 6.90625 C-42.02115993 7.01937492 -42.02115993 7.01937492 -44.0625 8.1875 C-45.60273996 8.25700541 -47.14584988 8.27202357 -48.6875 8.25 C-49.91339844 8.23646484 -49.91339844 8.23646484 -51.1640625 8.22265625 C-52.10378906 8.20525391 -52.10378906 8.20525391 -53.0625 8.1875 C-49.71334667 6.2675222 -46.57548865 5.59064332 -42.78515625 4.93359375 C-41.54830078 4.71896484 -40.31144531 4.50433594 -39.03710938 4.28320312 C-37.74611328 4.06599609 -36.45511719 3.84878906 -35.125 3.625 C-33.86880859 3.40392578 -32.61261719 3.18285156 -31.31835938 2.95507812 C-20.92322547 1.17872845 -10.55473635 0.06671768 0 0 Z " fill="#626262" transform="translate(308.0625,180.8125)"/>
<path d="M0 0 C0.33 0 0.66 0 1 0 C1.74675786 2.98703145 2.1555543 5.93083963 2.3125 9 C2.36857422 9.9590625 2.36857422 9.9590625 2.42578125 10.9375 C1.73670804 14.27539592 0.4781719 15.62861411 -2 18 C-5.34614519 19.74719248 -8.81482981 21.00801765 -12.375 22.25 C-13.35782959 22.5991748 -14.34065918 22.94834961 -15.35327148 23.30810547 C-24.38533078 26.37727339 -33.91296731 29.23505744 -43 25 C-43 24.34 -43 23.68 -43 23 C-43.639375 22.731875 -44.27875 22.46375 -44.9375 22.1875 C-47 21 -47 21 -48 18 C-46.02 18.33 -44.04 18.66 -42 19 C-42.33 14.05 -42.66 9.1 -43 4 C-40.82539828 7.26190257 -40.22352091 9.69451228 -39.375 13.5 C-39.11460937 14.6446875 -38.85421875 15.789375 -38.5859375 16.96875 C-38 20 -38 20 -38 23 C-21.62918023 21.02625956 -21.62918023 21.02625956 -6 16 C-5.08734375 15.60167969 -4.1746875 15.20335937 -3.234375 14.79296875 C-0.68701962 13.13038416 -0.68701962 13.13038416 -0.29296875 9.86328125 C-0.25816406 8.69152344 -0.22335937 7.51976562 -0.1875 6.3125 C-0.13980469 5.13300781 -0.09210938 3.95351563 -0.04296875 2.73828125 C-0.02878906 1.83464844 -0.01460938 0.93101562 0 0 Z " fill="#343434" transform="translate(300,324)"/>
<path d="M0 0 C0.66 0.33 1.32 0.66 2 1 C2.62852934 3.33247815 3.15535246 5.69291467 3.625 8.0625 C3.88539063 9.35285156 4.14578125 10.64320313 4.4140625 11.97265625 C4.60742188 12.97167969 4.80078125 13.97070312 5 15 C6.08796875 14.9278125 7.1759375 14.855625 8.296875 14.78125 C16.87677003 14.23234806 25.39755502 13.85082465 34 14 C26.86440863 17.93161203 18.13203717 17.18186158 10.1875 17.1875 C9.26001953 17.19974609 8.33253906 17.21199219 7.37695312 17.22460938 C6.03600586 17.22750977 6.03600586 17.22750977 4.66796875 17.23046875 C3.86641357 17.23457764 3.0648584 17.23868652 2.23901367 17.24291992 C-0.23234238 16.97479221 -1.86038613 16.23447495 -4 15 C-4 14.01 -4 13.02 -4 12 C-2.35 12 -0.7 12 1 12 C0.67 8.04 0.34 4.08 0 0 Z " fill="#1A1A1A" transform="translate(200,223)"/>
<path d="M0 0 C0.33 0 0.66 0 1 0 C2.34842966 5.39371866 3.1283898 10.63575471 0.6875 15.75 C-7.99699326 23.02073854 -19.24026014 22.74772005 -30 23 C-30 22.67 -30 22.34 -30 22 C-29.04480469 21.82984375 -28.08960938 21.6596875 -27.10546875 21.484375 C-13.42106573 18.98886675 -13.42106573 18.98886675 -1 13 C-0.41407366 9.88389446 -0.41407366 9.88389446 -0.3125 6.375 C-0.24675781 5.18648438 -0.18101562 3.99796875 -0.11328125 2.7734375 C-0.07589844 1.85820312 -0.03851563 0.94296875 0 0 Z " fill="#636363" transform="translate(300,324)"/>
<path d="M0 0 C0.33 0 0.66 0 1 0 C1.1139209 0.77746582 1.2278418 1.55493164 1.34521484 2.35595703 C2.75399715 11.76325861 4.49063036 21.08844026 6.3203125 30.421875 C7.38902748 36.03262864 8.31661436 41.28427756 8 47 C3.66784662 40.50176993 3.72136626 33.55407017 4 26 C3.34 26 2.68 26 2 26 C0.3960652 17.24996282 -0.26197285 8.89252296 0 0 Z " fill="#656565" transform="translate(292,276)"/>
<path d="M0 0 C0.33 0 0.66 0 1 0 C1.12117187 1.2065625 1.24234375 2.413125 1.3671875 3.65625 C1.53615881 5.27086471 1.70544656 6.88544632 1.875 8.5 C1.95363281 9.29148437 2.03226563 10.08296875 2.11328125 10.8984375 C2.59487559 15.41801515 3.35069802 19.6860942 4.52294922 24.07519531 C5.30371901 27.22544558 5.70561382 30.40970597 6.125 33.625 C6.29257813 34.87539063 6.46015625 36.12578125 6.6328125 37.4140625 C6.96355306 40.64406077 7.06985195 43.75687359 7 47 C5.42560793 44.124505 4.56981764 41.54896616 3.96484375 38.33203125 C3.79533203 37.43806641 3.62582031 36.54410156 3.45117188 35.62304688 C3.28166016 34.69556641 3.11214844 33.76808594 2.9375 32.8125 C2.76412109 31.90435547 2.59074219 30.99621094 2.41210938 30.06054688 C0.90676012 22.00317942 -0.14894463 14.14974017 -0.0625 5.9375 C-0.05347656 4.81214844 -0.04445312 3.68679688 -0.03515625 2.52734375 C-0.02355469 1.69332031 -0.01195312 0.85929687 0 0 Z " fill="#616161" transform="translate(249,273)"/>
<path d="M0 0 C0 0.33 0 0.66 0 1 C-1.20398438 1.20496094 -2.40796875 1.40992188 -3.6484375 1.62109375 C-5.22398692 1.89306359 -6.79950621 2.16520807 -8.375 2.4375 C-9.1690625 2.57220703 -9.963125 2.70691406 -10.78125 2.84570312 C-15.01394983 3.51417589 -15.01394983 3.51417589 -19 5 C-22.08005912 5.31500605 -25.16099912 5.51083648 -28.25 5.71875 C-30.95865993 5.83187492 -30.95865993 5.83187492 -33 7 C-34.54023996 7.06950541 -36.08334988 7.08452357 -37.625 7.0625 C-38.85089844 7.04896484 -38.85089844 7.04896484 -40.1015625 7.03515625 C-41.04128906 7.01775391 -41.04128906 7.01775391 -42 7 C-37.012989 4.13222119 -31.40085087 3.65874185 -25.80249023 2.71289062 C-23.83465403 2.37876165 -21.86943985 2.02930814 -19.90429688 1.6796875 C-13.17185099 0.52378468 -6.83035723 -0.28366511 0 0 Z " fill="#6E6E6E" transform="translate(297,182)"/>
<path d="M0 0 C-5.20087353 3.46724902 -9.67997114 4.25142916 -15.875 4.125 C-17.02742188 4.10695313 -18.17984375 4.08890625 -19.3671875 4.0703125 C-20.23601562 4.04710937 -21.10484375 4.02390625 -22 4 C-17.18206391 -0.81793609 -6.61124467 -0.30749975 0 0 Z " fill="#1E1E1E" transform="translate(285,346)"/>
<path d="M0 0 C0.99 0.33 1.98 0.66 3 1 C-1.81384901 4.81788025 -7.10647769 4.70067925 -13 5 C-10.13851267 3.09234178 -8.64699621 2.5716491 -5.375 1.9375 C-2.40230348 1.52905984 -2.40230348 1.52905984 0 0 Z " fill="#8B8B8B" transform="translate(317,218)"/>
<path d="M0 0 C0.66 1.32 1.32 2.64 2 4 C5.63 4 9.26 4 13 4 C13 4.33 13 4.66 13 5 C7.06 5.495 7.06 5.495 1 6 C0.34 5.01 -0.32 4.02 -1 3 C-0.67 2.01 -0.34 1.02 0 0 Z " fill="#505050" transform="translate(203,234)"/>
<path d="M0 0 C-2.71182212 2.60334924 -3.89133813 2.99456691 -7.75 3.1875 C-8.8225 3.125625 -9.895 3.06375 -11 3 C-4.23255814 -1.51162791 -4.23255814 -1.51162791 0 0 Z " fill="#474747" transform="translate(300,340)"/>
</svg>
